<?xml version="1.0" encoding="UTF-8" standalone="no"?>
<svg
   fill="none"
   viewBox="0 0 16 16"
   id="Arch-Linux-Logo--Streamline-Logos"
   height="16"
   width="16"
   version="1.1"
   xmlns="http://www.w3.org/2000/svg"
   xmlns:svg="http://www.w3.org/2000/svg">
  <defs
     id="defs1" />
  <desc
     id="desc1">
    Arch Linux Logo Streamline Icon: https://streamlinehq.com
  </desc>
  <path
     style="fill:#ffffff;stroke-width:0.0130961"
     d="m 14.786211,14.819843 c -1.162396,-0.780948 -2.551335,-1.486383 -3.906421,-1.984054 -0.246526,-0.09054 -0.9079819,-0.31004 -1.1143119,-0.36978 -0.060176,-0.01742 -0.112284,-0.03893 -0.1157981,-0.04778 -0.00355,-0.0089 0.011783,-0.07668 0.034,-0.150716 0.1223051,-0.40765 0.1615262,-0.753334 0.1335859,-1.177382 C 9.7634229,10.272992 9.385159,9.5258174 8.8363611,9.1525839 8.7113382,9.067556 8.50108,8.9711946 8.3568676,8.9328304 8.2396768,8.9016535 8.2027574,8.8980229 8.0035343,8.8980229 c -0.1983279,0 -0.2363039,0.00376 -0.349959,0.034138 C 7.16607,9.062692 6.7441245,9.4401421 6.4782329,9.9835589 6.2726125,10.403797 6.1870494,10.796175 6.1867286,11.320351 c -2.32e-4,0.379113 0.031772,0.608804 0.129329,0.928193 0.025999,0.08512 0.044525,0.161929 0.041167,0.170692 -0.00335,0.0088 -0.08481,0.03868 -0.1810076,0.06649 -0.2539681,0.07342 -0.8896766,0.289581 -1.2292088,0.417977 -1.2417344,0.469568 -2.3520355,1.032909 -3.5485217,1.800438 -0.1275817,0.08184 -0.241004,0.152276 -0.2520496,0.156521 -0.022106,0.0085 0.00262,-0.03537 0.5031894,-0.892939 1.470428,-2.5191 2.7512384,-4.880943 4.0179224,-7.4091535 0.2178889,-0.4348908 0.403463,-0.7935165 0.4123868,-0.796946 0.00892,-0.00343 0.1597726,0.032408 0.3352197,0.079639 C 7.4414627,6.1175455 7.683279,6.1803138 7.6911167,6.1724648 7.7045648,6.1589992 7.6621532,6.1000511 7.1140369,5.3703037 6.8325024,4.9954778 6.5976374,4.6814154 6.5921139,4.6723873 6.5861103,4.6625698 6.6475802,4.5098224 6.7450714,4.2923191 7.1986557,3.280373 7.6231882,2.2095319 7.9162366,1.3381675 l 0.086656,-0.2576649 0.1193582,0.3494055 c 0.7426276,2.173941 2.2276722,5.3273486 4.2452952,9.0146379 0.164804,0.301186 0.297032,0.550227 0.293839,0.553424 -0.0032,0.0032 -0.310516,0.0092 -0.682941,0.01337 l -0.677138,0.0076 1.040369,0.624517 1.04037,0.624518 0.215183,0.378077 c 0.335936,0.59024 0.617682,1.078298 0.96572,1.672882 0.176351,0.301277 0.318138,0.550279 0.315084,0.553337 -0.0031,0.0031 -0.04438,-0.02052 -0.09182,-0.05239 z"
     id="path3" />
</svg>
