<?xml version="1.0" encoding="UTF-8" standalone="no"?>
<svg
   fill="none"
   viewBox="0 0 22 22"
   id="Arch-Linux-Logo--Streamline-Logos"
   height="22"
   width="22"
   version="1.1"
   xmlns="http://www.w3.org/2000/svg"
   xmlns:svg="http://www.w3.org/2000/svg">
  <defs
     id="defs1" />
  <desc
     id="desc1">
    Arch Linux Logo Streamline Icon: https://streamlinehq.com
  </desc>
  <path
     style="fill:#ffffff;stroke-width:0.0188048"
     d="m 20.746084,20.796935 c -1.670103,-1.120687 -3.665698,-2.133011 -5.612654,-2.847186 -0.354202,-0.129926 -1.304567,-0.444919 -1.601017,-0.530647 -0.08646,-0.025 -0.161327,-0.05586 -0.166376,-0.06856 -0.0051,-0.01271 0.01693,-0.110036 0.04885,-0.216283 0.175725,-0.584992 0.232077,-1.081061 0.191933,-1.689585 -0.07736,-1.172628 -0.620841,-2.24485 -1.409341,-2.780453 -0.17963,-0.122018 -0.481724,-0.2603 -0.688925,-0.315354 -0.168377,-0.04474 -0.221422,-0.04995 -0.507661,-0.04995 -0.284953,0 -0.339516,0.0054 -0.502813,0.04899 -0.7004361,0.187316 -1.3066776,0.72897 -1.6887044,1.508792 -0.2954306,0.603057 -0.4183657,1.166133 -0.4188266,1.918344 -3.333e-4,0.54404 0.045649,0.873655 0.1858169,1.331989 0.037355,0.122148 0.063973,0.232374 0.059148,0.244948 -0.00482,0.01257 -0.1218537,0.05551 -0.2600676,0.09542 -0.3648954,0.105356 -1.2782665,0.41556 -1.7660984,0.599812 -1.7840949,0.673846 -3.3793495,1.48226 -5.0984329,2.583691 -0.1833064,0.117446 -0.3462689,0.218522 -0.3621389,0.224614 -0.031761,0.01219 0.00376,-0.05076 0.7229707,-1.281399 C 3.9844236,15.959117 5.824662,12.56979 7.6446039,8.9417197 7.9576616,8.3176363 8.2242902,7.8029959 8.2371117,7.7980745 8.2499334,7.7931518 8.4666692,7.8445806 8.7187475,7.9123584 10.193322,8.3088349 10.540758,8.3989097 10.552019,8.3876461 10.571341,8.3683225 10.510405,8.2837299 9.7228843,7.2365169 9.3183822,6.6986286 8.9809336,6.2479381 8.9729976,6.2349825 8.9643717,6.220894 9.0526902,6.0016962 9.1927634,5.6895713 9.8444626,4.2373934 10.454421,2.700699 10.875466,1.4502607 l 0.124505,-0.3697581 0.171491,0.5014091 c 1.06699,3.1196812 3.200668,7.6449311 6.099541,12.9363193 0.236787,0.432213 0.426769,0.789596 0.422181,0.794183 -0.0046,0.0046 -0.446142,0.01322 -0.981234,0.01919 l -0.972895,0.01085 1.494777,0.896204 1.494779,0.896205 0.30917,0.542553 c 0.482666,0.847015 0.887472,1.547396 1.387524,2.400645 0.253377,0.432343 0.457094,0.789669 0.452706,0.794058 -0.0044,0.0044 -0.06376,-0.02944 -0.131927,-0.07518 z"
     id="path3" />
</svg>
